<svg width="26" height="27" viewBox="0 0 26 27" fill="none" xmlns="http://www.w3.org/2000/svg">
<path d="M22.4936 14.5038C22.9201 13.9402 23.1562 13.2495 23.1562 12.531C23.1562 11.3909 22.5189 10.3118 21.4932 9.71008C21.2291 9.55518 20.9284 9.47366 20.6223 9.47395H14.5336L14.6859 6.35344C14.7215 5.59934 14.4549 4.88332 13.9369 4.33742C13.6827 4.06835 13.376 3.85427 13.0358 3.70841C12.6956 3.56255 12.3291 3.488 11.959 3.48938C10.6387 3.48938 9.4707 4.37805 9.12031 5.65012L6.93926 13.5466H3.65625C3.20684 13.5466 2.84375 13.9097 2.84375 14.3591V23.6013C2.84375 24.0507 3.20684 24.4138 3.65625 24.4138H18.9236C19.1572 24.4138 19.3857 24.3681 19.5965 24.2767C20.8051 23.7612 21.5846 22.5806 21.5846 21.2704C21.5846 20.9505 21.5389 20.6357 21.4475 20.331C21.874 19.7673 22.1102 19.0767 22.1102 18.3581C22.1102 18.0382 22.0645 17.7234 21.973 17.4187C22.3996 16.855 22.6357 16.1644 22.6357 15.4458C22.6307 15.1259 22.585 14.8085 22.4936 14.5038ZM4.67188 22.5857V15.3747H6.72852V22.5857H4.67188ZM20.8305 13.6228L20.2744 14.1052L20.6273 14.7501C20.7436 14.9626 20.8039 15.2011 20.8025 15.4433C20.8025 15.8622 20.6197 16.2609 20.3049 16.5351L19.7488 17.0175L20.1018 17.6624C20.218 17.8749 20.2783 18.1134 20.277 18.3556C20.277 18.7745 20.0941 19.1732 19.7793 19.4474L19.2232 19.9298L19.5762 20.5747C19.6924 20.7872 19.7527 21.0257 19.7514 21.2679C19.7514 21.8366 19.4162 22.3495 18.8982 22.5831H8.35352V15.2935L10.8799 6.14016C10.945 5.90555 11.0849 5.69857 11.2782 5.55058C11.4716 5.40259 11.7079 5.32165 11.9514 5.32004C12.1443 5.32004 12.3348 5.3759 12.4871 5.49016C12.7385 5.67805 12.873 5.96242 12.8578 6.26457L12.6141 11.3021H20.5969C21.0488 11.5788 21.3281 12.046 21.3281 12.531C21.3281 12.9499 21.1453 13.346 20.8305 13.6228Z" fill="#2B5279"/>
</svg>
